<svg xmlns="http://www.w3.org/2000/svg" width="128" height="128" viewBox="0 0 128 128">
  <defs>
    <filter id="s" x="-20%" y="-20%" width="140%" height="140%">
      <feDropShadow dx="0" dy="4" stdDeviation="3" flood-color="#000" flood-opacity="0.35"/>
    </filter>
    <linearGradient id="fur" x1="0" y1="0" x2="0" y2="1">
      <stop offset="0" stop-color="#ffd7a1"/>
      <stop offset="1" stop-color="#b86a2a"/>
    </linearGradient>
    <linearGradient id="fur2" x1="0" y1="0" x2="1" y2="1">
      <stop offset="0" stop-color="#ffe7c5"/>
      <stop offset="1" stop-color="#cf7a33"/>
    </linearGradient>
  </defs>
  <g filter="url(#s)">
    <ellipse cx="64" cy="70" rx="36" ry="30" fill="url(#fur)" stroke="#2b1630" stroke-width="6"/>
    <ellipse cx="52" cy="60" rx="10" ry="10" fill="url(#fur2)" stroke="#2b1630" stroke-width="6"/>
    <ellipse cx="76" cy="60" rx="10" ry="10" fill="url(#fur2)" stroke="#2b1630" stroke-width="6"/>
    <ellipse cx="64" cy="78" rx="22" ry="18" fill="#ffe9d6" opacity="0.65"/>
    <ellipse cx="96" cy="86" rx="18" ry="14" fill="#a85a22" stroke="#2b1630" stroke-width="6"/>
    <path d="M86 80c6 5 13 7 20 6" fill="none" stroke="#2b1630" stroke-width="6" stroke-linecap="round"/>
    <g>
      <circle cx="54" cy="66" r="6.8" fill="#fff" stroke="#2b1630" stroke-width="5"/>
      <circle cx="54" cy="66" r="2.8" fill="#151224"/>
      <circle cx="74" cy="66" r="6.8" fill="#fff" stroke="#2b1630" stroke-width="5"/>
      <circle cx="74" cy="66" r="2.8" fill="#151224"/>
      <circle cx="56" cy="64" r="1.2" fill="#fff" opacity="0.9"/>
      <circle cx="76" cy="64" r="1.2" fill="#fff" opacity="0.9"/>
    </g>
    <path d="M64 74c6 0 10 4 10 8 0 6-6 10-10 10s-10-4-10-10c0-4 4-8 10-8z"
          fill="#ffb2c3" stroke="#2b1630" stroke-width="6" stroke-linejoin="round"/>
    <rect x="59" y="82" width="6" height="10" rx="2" fill="#ffffff" stroke="#2b1630" stroke-width="5"/>
    <rect x="65" y="82" width="6" height="10" rx="2" fill="#ffffff" stroke="#2b1630" stroke-width="5"/>
  </g>
</svg>
