<svg xmlns="http://www.w3.org/2000/svg" width="128" height="128" viewBox="0 0 128 128">
  <defs>
    <filter id="s" x="-20%" y="-20%" width="140%" height="140%">
      <feDropShadow dx="0" dy="4" stdDeviation="3" flood-color="#000" flood-opacity="0.35"/>
    </filter>
    <linearGradient id="c" x1="0" y1="0" x2="0" y2="1">
      <stop offset="0" stop-color="#ffb09f"/>
      <stop offset="1" stop-color="#ff3c2e"/>
    </linearGradient>
  </defs>
  <g filter="url(#s)">
    <ellipse cx="64" cy="72" rx="34" ry="26" fill="url(#c)" stroke="#2b1630" stroke-width="6"/>
    <ellipse cx="54" cy="60" rx="8" ry="7" fill="#ffd3cb" opacity="0.65"/>
    <path d="M30 64c-10-4-16-14-12-24 3-8 12-11 20-7"
          fill="none" stroke="#2b1630" stroke-width="6" stroke-linecap="round"/>
    <path d="M98 64c10-4 16-14 12-24-3-8-12-11-20-7"
          fill="none" stroke="#2b1630" stroke-width="6" stroke-linecap="round"/>
    <path d="M26 84c-10 6-14 16-10 24" fill="none" stroke="#2b1630" stroke-width="6" stroke-linecap="round"/>
    <path d="M102 84c10 6 14 16 10 24" fill="none" stroke="#2b1630" stroke-width="6" stroke-linecap="round"/>
    <g>
      <path d="M24 70c-10 2-18 10-16 20 2 9 12 14 22 10 6-2 10-7 10-12 0-5-4-8-9-9z"
            fill="#ff6a58" stroke="#2b1630" stroke-width="6" stroke-linejoin="round"/>
      <path d="M104 70c10 2 18 10 16 20-2 9-12 14-22 10-6-2-10-7-10-12 0-5 4-8 9-9z"
            fill="#ff6a58" stroke="#2b1630" stroke-width="6" stroke-linejoin="round"/>
    </g>
    <g>
      <circle cx="54" cy="72" r="6.8" fill="#fff" stroke="#2b1630" stroke-width="5"/>
      <circle cx="54" cy="72" r="2.8" fill="#151224"/>
      <circle cx="74" cy="72" r="6.8" fill="#fff" stroke="#2b1630" stroke-width="5"/>
      <circle cx="74" cy="72" r="2.8" fill="#151224"/>
      <path d="M58 84c3 3 9 3 12 0" fill="none" stroke="#2b1630" stroke-width="6" stroke-linecap="round"/>
    </g>
  </g>
</svg>
