<svg xmlns="http://www.w3.org/2000/svg" width="128" height="128" viewBox="0 0 128 128">
  <defs>
    <filter id="s" x="-20%" y="-20%" width="140%" height="140%">
      <feDropShadow dx="0" dy="4" stdDeviation="3" flood-color="#000" flood-opacity="0.35"/>
    </filter>
    <linearGradient id="b" x1="0" y1="0" x2="1" y2="1">
      <stop offset="0" stop-color="#b7ffcc"/>
      <stop offset="1" stop-color="#2fd0a2"/>
    </linearGradient>
  </defs>
  <g filter="url(#s)">
    <path d="M28 80c8-24 28-36 44-28 16 8 20 30 2 44-14 11-34 7-46-16z"
          fill="url(#b)" stroke="#2b1630" stroke-width="6" stroke-linejoin="round"/>
    <path d="M74 48c18-12 36-8 44 8 8 16-2 34-22 36"
          fill="none" stroke="#2b1630" stroke-width="6" stroke-linecap="round"/>
    <path d="M42 76c10-10 22-12 30-6" fill="none" stroke="#ffffff" stroke-opacity="0.45" stroke-width="6" stroke-linecap="round"/>
    <g>
      <circle cx="54" cy="66" r="7.2" fill="#fff" stroke="#2b1630" stroke-width="5"/>
      <circle cx="54" cy="66" r="3.0" fill="#151224"/>
      <circle cx="70" cy="72" r="7.2" fill="#fff" stroke="#2b1630" stroke-width="5"/>
      <circle cx="70" cy="72" r="3.0" fill="#151224"/>
      <path d="M58 82c5 5 14 5 19 0" fill="none" stroke="#2b1630" stroke-width="6" stroke-linecap="round"/>
    </g>
  </g>
</svg>
