<svg xmlns="http://www.w3.org/2000/svg" width="128" height="128" viewBox="0 0 128 128">
  <defs>
    <filter id="s" x="-20%" y="-20%" width="140%" height="140%">
      <feDropShadow dx="0" dy="4" stdDeviation="3" flood-color="#000" flood-opacity="0.35"/>
    </filter>
    <linearGradient id="shell" x1="0" y1="0" x2="0" y2="1">
      <stop offset="0" stop-color="#b7ffcc"/>
      <stop offset="1" stop-color="#2fd0a2"/>
    </linearGradient>
    <linearGradient id="shell2" x1="0" y1="0" x2="1" y2="1">
      <stop offset="0" stop-color="#e4ffe9"/>
      <stop offset="1" stop-color="#57ffb0"/>
    </linearGradient>
  </defs>
  <g filter="url(#s)">
    <path d="M34 67c-8-12 3-28 18-30 10-2 17 4 18 12 1 10-6 19-15 23-8 4-16 2-21-5z"
          fill="url(#shell2)" stroke="#1b2a22" stroke-width="6" stroke-linejoin="round"/>
    <ellipse cx="70" cy="64" rx="28" ry="24" fill="url(#shell)" stroke="#1b2a22" stroke-width="6"/>
    <path d="M58 60c8-8 18-6 18 2 0 10-16 14-24 6 2 0 4-1 6-3z"
          fill="none" stroke="#ffffff" stroke-opacity="0.6" stroke-width="6" stroke-linecap="round"/>

    <!-- asym claw -->
    <g transform="translate(-4,-6) scale(1.22)">
      <path d="M96 43c13 3 22 15 18 27-3 9-12 14-21 12-7-2-11-7-11-13 0-5 3-8 7-9-2-6 1-13 7-17z"
            fill="url(#shell2)" stroke="#1b2a22" stroke-width="6" stroke-linejoin="round"/>
    </g>
    <path d="M96 85c13-3 22-15 18-27-3-9-12-14-21-12-7 2-11 7-11 13 0 5 3 8 7 9-2 6 1 13 7 17z"
          fill="url(#shell2)" stroke="#1b2a22" stroke-width="6" stroke-linejoin="round"/>

    <!-- eyes -->
    <g>
      <circle cx="78" cy="56" r="6.5" fill="#ffffff" stroke="#1b2a22" stroke-width="4"/>
      <circle cx="78" cy="56" r="2.8" fill="#151224"/>
      <circle cx="78" cy="72" r="6.5" fill="#ffffff" stroke="#1b2a22" stroke-width="4"/>
      <circle cx="78" cy="72" r="2.8" fill="#151224"/>
    </g>
  </g>
</svg>
