<svg xmlns="http://www.w3.org/2000/svg" width="192" height="192" viewBox="0 0 128 128">
  <defs>
    <filter id="s" x="-20%" y="-20%" width="140%" height="140%">
      <feDropShadow dx="0" dy="5" stdDeviation="4" flood-color="#000" flood-opacity="0.4"/>
    </filter>
    <linearGradient id="p" x1="0" y1="0" x2="0" y2="1">
      <stop offset="0" stop-color="#ffc6ff"/>
      <stop offset="1" stop-color="#a855f7"/>
    </linearGradient>
  </defs>
  <g filter="url(#s)">
    <path d="M30 60c0-18 14-32 34-32s34 14 34 32c0 18-14 32-34 32S30 78 30 60z"
          fill="url(#p)" stroke="#2b1630" stroke-width="6"/>
    <!-- tentacles -->
    <path d="M22 86c10 0 14 8 22 8 10 0 10-10 20-10 10 0 10 10 20 10 8 0 12-8 22-8"
          fill="none" stroke="#2b1630" stroke-width="8" stroke-linecap="round"/>
    <path d="M28 94c6 0 10 6 16 6 8 0 8-8 16-8 8 0 8 8 16 8 6 0 10-6 16-6"
          fill="none" stroke="#ffffff" stroke-opacity="0.35" stroke-width="6" stroke-linecap="round"/>
    <!-- eyes -->
    <g>
      <circle cx="52" cy="56" r="9" fill="#fff" stroke="#2b1630" stroke-width="5"/>
      <circle cx="52" cy="56" r="3.6" fill="#151224"/>
      <circle cx="76" cy="56" r="9" fill="#fff" stroke="#2b1630" stroke-width="5"/>
      <circle cx="76" cy="56" r="3.6" fill="#151224"/>
      <circle cx="54" cy="54" r="1.4" fill="#fff" opacity="0.9"/>
      <circle cx="78" cy="54" r="1.4" fill="#fff" opacity="0.9"/>
    </g>
    <!-- crown-ish mark -->
    <path d="M64 34l6 8 8-4-4 10H54l-4-10 8 4z" fill="#ffef86" stroke="#2b1630" stroke-width="5" stroke-linejoin="round"/>
    <!-- mouth -->
    <path d="M56 72c5 4 11 4 16 0" fill="none" stroke="#2b1630" stroke-width="6" stroke-linecap="round"/>
  </g>
</svg>
