<svg xmlns="http://www.w3.org/2000/svg" width="128" height="128" viewBox="0 0 128 128">
  <defs>
    <filter id="s" x="-20%" y="-20%" width="140%" height="140%">
      <feDropShadow dx="0" dy="4" stdDeviation="3" flood-color="#000" flood-opacity="0.35"/>
    </filter>
    <linearGradient id="g" x1="0" y1="0" x2="1" y2="1">
      <stop offset="0" stop-color="#b9e6ff"/>
      <stop offset="1" stop-color="#3a86ff"/>
    </linearGradient>
  </defs>
  <g filter="url(#s)">
    <path d="M22 72c12-22 42-34 66-24 12 5 20 15 18 26-2 14-18 24-40 24-22 0-40-10-44-26z"
          fill="url(#g)" stroke="#2b1630" stroke-width="6" stroke-linejoin="round"/>
    <path d="M58 42c10-18 24-22 30-10 2 4 2 9 0 14"
          fill="none" stroke="#2b1630" stroke-width="6" stroke-linecap="round"/>
    <path d="M88 80c10 10 20 10 26 2" fill="none" stroke="#2b1630" stroke-width="6" stroke-linecap="round"/>
    <ellipse cx="60" cy="80" rx="24" ry="16" fill="#ffffff" opacity="0.55"/>
    <g>
      <circle cx="56" cy="68" r="6.8" fill="#fff" stroke="#2b1630" stroke-width="5"/>
      <circle cx="56" cy="68" r="2.8" fill="#151224"/>
      <path d="M66 78c8 0 14 4 18 10-7 4-13 6-18 6-5 0-11-2-18-6 4-6 10-10 18-10z"
            fill="#ff9fb3" stroke="#2b1630" stroke-width="6" stroke-linejoin="round"/>
      <path d="M56 86l4 6" stroke="#2b1630" stroke-width="4" stroke-linecap="round"/>
      <path d="M64 88l3 6" stroke="#2b1630" stroke-width="4" stroke-linecap="round"/>
      <path d="M72 88l-2 6" stroke="#2b1630" stroke-width="4" stroke-linecap="round"/>
    </g>
  </g>
</svg>
