<svg xmlns="http://www.w3.org/2000/svg" width="192" height="192" viewBox="0 0 128 128">
  <defs>
    <filter id="s" x="-20%" y="-20%" width="140%" height="140%">
      <feDropShadow dx="0" dy="5" stdDeviation="4" flood-color="#000" flood-opacity="0.4"/>
    </filter>
    <linearGradient id="w" x1="0" y1="0" x2="1" y2="1">
      <stop offset="0" stop-color="#c7f7ff"/>
      <stop offset="1" stop-color="#3aa7ff"/>
    </linearGradient>
  </defs>
  <g filter="url(#s)">
    <path d="M18 70c0-22 22-40 50-40 26 0 42 13 42 30 0 22-22 40-50 40-26 0-42-13-42-30z"
          fill="url(#w)" stroke="#2b1630" stroke-width="6" stroke-linejoin="round"/>
    <!-- tail -->
    <path d="M96 70c10-10 18-10 20-2 2 8-6 16-18 14"
          fill="none" stroke="#2b1630" stroke-width="8" stroke-linecap="round"/>
    <!-- belly -->
    <path d="M34 78c10 12 32 16 52 6" fill="none" stroke="#ffffff" stroke-opacity="0.55" stroke-width="10" stroke-linecap="round"/>
    <!-- eye -->
    <circle cx="54" cy="62" r="7.5" fill="#fff" stroke="#2b1630" stroke-width="5"/>
    <circle cx="54" cy="62" r="3.2" fill="#151224"/>
    <circle cx="56" cy="60" r="1.2" fill="#fff" opacity="0.9"/>
    <!-- mouth -->
    <path d="M44 74c8 6 18 6 26 0" fill="none" stroke="#2b1630" stroke-width="6" stroke-linecap="round"/>
    <!-- water spout -->
    <path d="M70 38c2-10 12-16 20-10" fill="none" stroke="#2b1630" stroke-width="6" stroke-linecap="round"/>
    <path d="M72 36c2-8 10-12 16-7" fill="none" stroke="#ffffff" stroke-opacity="0.35" stroke-width="5" stroke-linecap="round"/>
  </g>
</svg>
